<svg width="707" height="236" viewBox="0 0 707 236" fill="none" xmlns="http://www.w3.org/2000/svg">
<path d="M41.7812 151.188C78.4301 144.936 75.4631 182.073 123.717 187.491C171.972 192.91 186.591 155.218 208.58 144.381C230.569 133.544 239.236 84.3236 275.885 87.658C312.533 90.9925 331.669 124.331 362.21 128.499C392.751 132.667 397.88 160.261 426.588 180.684C455.297 201.108 482.729 203.004 518.767 198.836C554.805 194.668 564.579 152.855 581.682 151.188C598.785 149.521 613.843 169.293 628.503 173.878C643.162 178.462 647.098 198.836 678.25 198.836" stroke="#2D2B6D" stroke-width="3.10989" stroke-linecap="round" stroke-linejoin="round"/>
<path d="M41.7812 151.188C78.4301 144.936 75.4631 182.073 123.717 187.491C171.972 192.91 186.591 155.218 208.58 144.381C230.569 133.544 239.236 84.3236 275.885 87.658C312.533 90.9925 331.669 124.331 362.21 128.499C392.751 132.667 397.88 160.261 426.588 180.684C455.297 201.108 482.729 203.004 518.767 198.836C554.805 194.668 564.579 152.855 581.682 151.188C598.785 149.521 613.843 169.293 628.503 173.878C643.162 178.462 647.098 198.836 678.25 198.836" stroke="white" stroke-opacity="0.6" stroke-width="3.10989" stroke-linecap="round" stroke-linejoin="round"/>
<path d="M3.06946 34.2137C2.37285 34.2029 1.91569 33.7675 1.91569 33.1797C1.91569 32.6464 2.35108 32.1783 3.06946 32.1783C3.78785 32.1783 4.23412 32.6464 4.23412 33.1797C4.23412 33.7675 3.77696 34.2029 3.06946 34.2137ZM3.06946 37.392C2.22046 37.392 1.75242 36.8914 1.75242 36.3145C1.75242 35.7376 2.22046 35.226 3.06946 35.226C3.92935 35.226 4.39739 35.7376 4.39739 36.3145C4.39739 36.8914 3.92935 37.392 3.06946 37.392ZM3.06946 38.4914C4.69127 38.4914 5.69265 37.6206 5.69265 36.4451C5.69265 35.6396 5.12665 34.9757 4.3865 34.7144C5.06135 34.4641 5.52939 33.7892 5.52939 33.1035C5.52939 31.928 4.48446 31.1116 3.06946 31.1116C1.65446 31.1116 0.620423 31.928 0.620423 33.1035C0.620423 33.8001 1.08846 34.4641 1.76331 34.7144C1.01227 34.9757 0.457154 35.6396 0.457154 36.4451C0.457154 37.6206 1.45854 38.4914 3.06946 38.4914ZM7.88642 34.8015C7.88642 33.909 8.0388 33.2232 8.38711 32.7879C8.62657 32.4722 8.96399 32.2654 9.47557 32.2654C9.98715 32.2654 10.3137 32.4722 10.564 32.7879C10.9015 33.2232 11.0538 33.909 11.0538 34.8015C11.0538 35.694 10.9015 36.3798 10.564 36.8152C10.3137 37.1308 9.98715 37.3376 9.47557 37.3376C8.96399 37.3376 8.62657 37.1308 8.38711 36.8152C8.04968 36.3798 7.88642 35.694 7.88642 34.8015ZM6.59115 34.8015C6.59115 35.7376 6.74353 36.6192 7.22245 37.3376C7.67961 38.0234 8.41976 38.4914 9.47557 38.4914C10.5314 38.4914 11.2606 38.0234 11.7178 37.3376C12.1967 36.6192 12.3491 35.7376 12.3491 34.8015C12.3491 33.8654 12.1967 32.9838 11.7178 32.2654C11.2606 31.5797 10.5314 31.1116 9.47557 31.1116C8.41976 31.1116 7.67961 31.5797 7.22245 32.2654C6.74353 32.9838 6.59115 33.8654 6.59115 34.8015Z" fill="#A2A3A5"/>
<path d="M5.71442 85.5667C5.38789 85.3381 4.83277 85.1749 4.19058 85.1749C2.13339 85.1749 0.555116 86.6661 0.555116 89.2892C0.555116 91.6186 1.95923 92.5546 3.30892 92.5546C4.69127 92.5546 5.92123 91.6621 5.92123 90.1491C5.92123 88.6144 4.89808 87.7436 3.50485 87.7436C2.56877 87.7436 1.92658 88.1899 1.64358 88.6579C1.73065 87.2103 2.65585 86.1327 4.12527 86.1327C4.65862 86.1327 5.12665 86.2851 5.38789 86.4375L5.71442 85.5667ZM1.79596 90.1491C1.79596 89.2022 2.50346 88.6579 3.31981 88.6579C4.13615 88.6579 4.84365 89.2022 4.84365 90.1491C4.84365 91.0852 4.14704 91.6294 3.31981 91.6294C2.547 91.6294 1.79596 91.0743 1.79596 90.1491ZM7.91397 88.8647C7.91397 87.7872 8.10989 87.0252 8.53439 86.579C8.80651 86.296 9.15481 86.1218 9.65551 86.1218C10.1562 86.1218 10.5045 86.296 10.7766 86.579C11.2011 87.0252 11.397 87.7872 11.397 88.8647C11.397 89.9423 11.2011 90.7042 10.7766 91.1505C10.5045 91.4335 10.1562 91.6077 9.65551 91.6077C9.15481 91.6077 8.80651 91.4335 8.53439 91.1505C8.10989 90.7042 7.91397 89.9423 7.91397 88.8647ZM6.85816 88.8647C6.85816 89.8335 7.02143 90.726 7.48947 91.4226C7.94662 92.1084 8.65412 92.5546 9.65551 92.5546C10.6569 92.5546 11.3644 92.1084 11.8215 91.4226C12.2896 90.726 12.4529 89.8335 12.4529 88.8647C12.4529 87.896 12.2896 87.0035 11.8215 86.3069C11.3644 85.6211 10.6569 85.1749 9.65551 85.1749C8.65412 85.1749 7.94662 85.6211 7.48947 86.3069C7.02143 87.0035 6.85816 87.896 6.85816 88.8647Z" fill="#A2A3A5"/>
<path d="M0.380962 146.795H3.84227L3.84227 148.384H4.87631L4.87631 146.795H6.0845L6.0845 145.805H4.87631L4.87631 141.331H3.40689L0.380962 145.565L0.380962 146.795ZM3.84227 145.805H1.36058L3.84227 142.354L3.84227 145.805ZM7.85019 144.858C7.85019 143.78 8.04611 143.018 8.47061 142.572C8.74273 142.289 9.09104 142.115 9.59173 142.115C10.0924 142.115 10.4407 142.289 10.7128 142.572C11.1373 143.018 11.3333 143.78 11.3333 144.858C11.3333 145.935 11.1373 146.697 10.7128 147.143C10.4407 147.426 10.0924 147.601 9.59173 147.601C9.09104 147.601 8.74273 147.426 8.47061 147.143C8.04611 146.697 7.85019 145.935 7.85019 144.858ZM6.79438 144.858C6.79438 145.826 6.95765 146.719 7.42569 147.415C7.88284 148.101 8.59034 148.547 9.59173 148.547C10.5931 148.547 11.3006 148.101 11.7578 147.415C12.2258 146.719 12.3891 145.826 12.3891 144.858C12.3891 143.889 12.2258 142.996 11.7578 142.3C11.3006 141.614 10.5931 141.168 9.59173 141.168C8.59034 141.168 7.88284 141.614 7.42569 142.3C6.95765 142.996 6.79438 143.889 6.79438 144.858Z" fill="#A2A3A5"/>
<path d="M1.53473 197.928C1.52385 197.819 1.51296 197.71 1.51296 197.612C1.51296 196.807 1.94835 196.165 2.87354 196.165C3.76608 196.165 4.20146 196.763 4.20146 197.405C4.20146 197.95 3.89669 198.45 3.23273 198.875L2.05719 199.637C0.859885 200.41 0.402731 201.291 0.380962 202.445H5.32258L5.32258 201.455H1.698C1.79596 201.019 2.15515 200.725 2.55789 200.464L3.95112 199.571C4.75658 199.06 5.27904 198.32 5.27904 197.395C5.27904 196.219 4.40827 195.229 2.89531 195.229C1.34969 195.229 0.457154 196.306 0.457154 197.514C0.457154 197.601 0.457154 197.699 0.468039 197.797L1.53473 197.928ZM7.36123 198.918C7.36123 197.841 7.55716 197.079 7.98166 196.633C8.25377 196.35 8.60208 196.175 9.10277 196.175C9.60346 196.175 9.95177 196.35 10.2239 196.633C10.6484 197.079 10.8443 197.841 10.8443 198.918C10.8443 199.996 10.6484 200.758 10.2239 201.204C9.95177 201.487 9.60346 201.661 9.10277 201.661C8.60208 201.661 8.25377 201.487 7.98166 201.204C7.55716 200.758 7.36123 199.996 7.36123 198.918ZM6.30542 198.918C6.30542 199.887 6.46869 200.78 6.93673 201.476C7.39389 202.162 8.10139 202.608 9.10277 202.608C10.1042 202.608 10.8117 202.162 11.2688 201.476C11.7368 200.78 11.9001 199.887 11.9001 198.918C11.9001 197.95 11.7368 197.057 11.2688 196.361C10.8117 195.675 10.1042 195.229 9.10277 195.229C8.10139 195.229 7.39389 195.675 6.93673 196.361C6.46869 197.057 6.30542 197.95 6.30542 198.918Z" fill="#A2A3A5"/>
<line x1="47.2939" y1="38.3166" x2="706.365" y2="38.3166" stroke="#ECE9F1" stroke-width="0.777473"/>
<line x1="47.2939" y1="92.3798" x2="706.365" y2="92.3798" stroke="#ECE9F1" stroke-width="0.777473"/>
<line x1="47.2939" y1="148.373" x2="706.365" y2="148.373" stroke="#ECE9F1" stroke-width="0.777473"/>
<line x1="47.2939" y1="202.433" x2="706.365" y2="202.433" stroke="#ECE9F1" stroke-width="0.777473"/>
<path d="M39.8619 199.644C67.9462 194.105 91.292 159.196 124.802 153.519C142.662 150.493 157.166 158.206 173.13 167.356C189.093 176.506 185.555 178.752 221.457 185.806C251.085 191.628 258.327 130.351 287.359 132.763C316.391 135.174 329.931 59.5824 360.583 65.8813C391.235 72.1803 397.672 55.7727 426.484 86.6376C455.297 117.503 482.577 44.5053 518.747 38.2063C554.916 31.9074 563.09 98.3822 580.255 95.8626C597.42 93.343 613.87 141.977 628.583 148.906C643.295 155.835 647.11 130.456 678.375 130.456" stroke="#2D2B6D" stroke-width="3.10989" stroke-linecap="round" stroke-linejoin="round"/>
<path d="M124.802 151.824C91.292 157.507 67.9462 192.405 39.8619 197.949L39.8619 211.787L678.375 211.787V128.762C647.11 128.762 643.295 154.148 628.583 147.212C613.87 140.276 597.42 91.6459 580.255 94.168C563.09 96.6902 554.916 30.2065 518.747 36.5118C482.577 42.8171 455.297 115.839 426.484 84.943C397.672 54.0469 391.235 70.4921 360.583 64.1868C329.931 57.8815 316.391 133.482 287.359 131.068C258.327 128.654 251.085 189.939 221.457 184.112C185.555 177.051 189.093 174.821 173.13 165.662C157.166 156.502 142.662 148.796 124.802 151.824Z" fill="url(#paint0_linear_2_186)"/>
<path d="M47.5116 230.72C47.5116 232.2 48.4042 233.18 49.9171 233.18C51.3539 233.18 52.2356 232.059 52.2356 230.709L52.2356 225.3H51.1689L51.1689 230.785C51.1689 231.678 50.6899 232.189 49.9063 232.189C49.1334 232.189 48.5783 231.732 48.5783 230.709V229.98L47.5116 230.219V230.72ZM53.6525 231.613C53.6525 232.44 54.3382 233.18 55.4049 233.18C56.341 233.18 56.8635 232.679 57.0921 232.309C57.0921 232.69 57.1247 232.886 57.1465 233.017H58.1479C58.1261 232.886 58.0826 232.614 58.0826 232.157V229.534C58.0826 228.51 57.473 227.618 55.9056 227.618C54.7736 227.618 53.8702 228.315 53.7614 229.316L54.741 229.545C54.8063 228.935 55.209 228.489 55.9274 228.489C56.722 228.489 57.0594 228.913 57.0594 229.425C57.0594 229.61 56.9723 229.773 56.6567 229.817L55.2417 230.023C54.3382 230.154 53.6525 230.677 53.6525 231.613ZM55.5464 232.32C55.024 232.32 54.6974 231.95 54.6974 231.558C54.6974 231.09 55.024 230.84 55.4594 230.774L57.0594 230.535V230.774C57.0594 231.917 56.3846 232.32 55.5464 232.32ZM60.6996 229.991C60.6996 229.196 61.1132 228.554 61.9187 228.554C62.833 228.554 63.1378 229.142 63.1378 229.871V233.017H64.1609V229.697C64.1609 228.532 63.5405 227.629 62.2888 227.629C61.6792 227.629 61.0588 227.879 60.6779 228.532V227.781H59.6765L59.6765 233.017H60.6996V229.991Z" fill="#A2A3A5"/>
<path d="M109.762 233.017V229.773H113.049V228.772H109.762V226.29H113.387V225.3H108.695L108.695 233.017H109.762ZM114.863 229.86C114.906 229.185 115.429 228.521 116.289 228.521C117.214 228.521 117.704 229.109 117.725 229.86H114.863ZM117.878 231.221C117.682 231.809 117.257 232.277 116.408 232.277C115.527 232.277 114.852 231.623 114.83 230.687H118.77C118.781 230.622 118.792 230.491 118.792 230.361C118.792 228.728 117.889 227.618 116.278 227.618C114.961 227.618 113.774 228.739 113.774 230.383C113.774 232.157 115.004 233.18 116.408 233.18C117.628 233.18 118.466 232.451 118.76 231.526L117.878 231.221ZM121.111 233.017V232.255C121.437 232.821 122.036 233.158 122.809 233.158C124.365 233.158 125.247 231.928 125.247 230.372C125.247 228.848 124.43 227.629 122.841 227.629C121.97 227.629 121.361 228.053 121.111 228.521V225.136H120.098V233.017H121.111ZM124.202 230.372C124.202 231.504 123.592 232.244 122.656 232.244C121.753 232.244 121.1 231.504 121.1 230.372C121.1 229.24 121.753 228.532 122.656 228.532C123.603 228.532 124.202 229.24 124.202 230.372Z" fill="#A2A3A5"/>
<path d="M175.425 233.017V225.3H173.999L171.257 231.58L168.535 225.3H167.088V233.017H168.144L168.144 227.008L170.756 233.017H171.735L174.37 227.008V233.017H175.425ZM176.899 231.613C176.899 232.44 177.585 233.18 178.652 233.18C179.588 233.18 180.11 232.679 180.339 232.309C180.339 232.69 180.371 232.886 180.393 233.017H181.395C181.373 232.886 181.329 232.614 181.329 232.157V229.534C181.329 228.51 180.72 227.618 179.152 227.618C178.02 227.618 177.117 228.315 177.008 229.316L177.988 229.545C178.053 228.935 178.456 228.489 179.174 228.489C179.969 228.489 180.306 228.913 180.306 229.425C180.306 229.61 180.219 229.773 179.903 229.817L178.488 230.023C177.585 230.154 176.899 230.677 176.899 231.613ZM178.793 232.32C178.271 232.32 177.944 231.95 177.944 231.558C177.944 231.09 178.271 230.84 178.706 230.774L180.306 230.535V230.774C180.306 231.917 179.631 232.32 178.793 232.32ZM185.829 227.727C185.775 227.716 185.633 227.694 185.492 227.694C184.959 227.694 184.305 227.89 183.925 228.696V227.781H182.923V233.017H183.946V230.394C183.946 229.24 184.523 228.783 185.383 228.783C185.525 228.783 185.677 228.793 185.829 228.815L185.829 227.727Z" fill="#A2A3A5"/>
<path d="M232.02 233.017H233.174L230.104 225.3H228.874L225.805 233.017H226.948L227.764 230.862H231.182L232.02 233.017ZM229.462 226.41L230.801 229.871H228.145L229.462 226.41ZM235.115 235.085V232.309C235.398 232.777 236.008 233.158 236.813 233.158C238.348 233.158 239.252 231.95 239.252 230.394C239.252 228.87 238.413 227.661 236.846 227.661C235.997 227.661 235.377 228.075 235.094 228.598V227.781H234.103V235.085H235.115ZM238.207 230.394C238.207 231.471 237.608 232.244 236.661 232.244C235.725 232.244 235.104 231.471 235.104 230.394C235.104 229.349 235.725 228.565 236.661 228.565C237.619 228.565 238.207 229.349 238.207 230.394ZM243.461 227.727C243.407 227.716 243.265 227.694 243.124 227.694C242.591 227.694 241.938 227.89 241.557 228.696V227.781H240.555V233.017H241.578V230.394C241.578 229.24 242.155 228.783 243.015 228.783C243.157 228.783 243.309 228.793 243.461 228.815L243.461 227.727Z" fill="#A2A3A5"/>
<path d="M292.619 233.017V225.3H291.193L288.45 231.58L285.729 225.3H284.281V233.017H285.337V227.008L287.95 233.017H288.929L291.563 227.008V233.017H292.619ZM294.093 231.613C294.093 232.44 294.779 233.18 295.845 233.18C296.781 233.18 297.304 232.679 297.532 232.309C297.532 232.69 297.565 232.886 297.587 233.017H298.588C298.566 232.886 298.523 232.614 298.523 232.157V229.534C298.523 228.51 297.913 227.618 296.346 227.618C295.214 227.618 294.311 228.315 294.202 229.316L295.181 229.545C295.247 228.935 295.649 228.489 296.368 228.489C297.162 228.489 297.5 228.913 297.5 229.425C297.5 229.61 297.413 229.773 297.097 229.817L295.682 230.023C294.779 230.154 294.093 230.677 294.093 231.613ZM295.987 232.32C295.464 232.32 295.138 231.95 295.138 231.558C295.138 231.09 295.464 230.84 295.9 230.774L297.5 230.535V230.774C297.5 231.917 296.825 232.32 295.987 232.32ZM301.317 235.205L304.724 227.781H303.624L302.057 231.395L300.424 227.781H299.249L301.502 232.44L300.196 235.205H301.317Z" fill="#A2A3A5"/>
<path d="M341.539 230.72C341.539 232.2 342.431 233.18 343.944 233.18C345.381 233.18 346.262 232.059 346.262 230.709V225.3H345.196V230.785C345.196 231.678 344.717 232.189 343.933 232.189C343.16 232.189 342.605 231.732 342.605 230.709V229.98L341.539 230.219V230.72ZM351.456 232.385C351.456 232.603 351.478 232.897 351.5 233.017H352.48C352.458 232.832 352.425 232.462 352.425 232.048V227.781H351.402V230.938C351.402 231.732 350.988 232.277 350.161 232.277C349.301 232.277 348.975 231.645 348.975 230.927V227.781H347.952V231.079C347.952 232.266 348.692 233.18 349.911 233.18C350.52 233.18 351.173 232.93 351.456 232.385ZM355.194 229.991C355.194 229.196 355.608 228.554 356.413 228.554C357.328 228.554 357.632 229.142 357.632 229.871V233.017H358.656V229.697C358.656 228.532 358.035 227.629 356.783 227.629C356.174 227.629 355.553 227.879 355.172 228.532V227.781H354.171V233.017H355.194V229.991Z" fill="#A2A3A5"/>
<path d="M396.426 230.72C396.426 232.2 397.318 233.18 398.831 233.18C400.268 233.18 401.15 232.059 401.15 230.709V225.3H400.083V230.785C400.083 231.678 399.604 232.189 398.82 232.189C398.048 232.189 397.492 231.732 397.492 230.709V229.98L396.426 230.219V230.72ZM406.344 232.385C406.344 232.603 406.365 232.897 406.387 233.017H407.367C407.345 232.832 407.312 232.462 407.312 232.048V227.781H406.289V230.938C406.289 231.732 405.876 232.277 405.048 232.277C404.188 232.277 403.862 231.645 403.862 230.927V227.781H402.839V231.079C402.839 232.266 403.579 233.18 404.798 233.18C405.408 233.18 406.061 232.93 406.344 232.385ZM410.081 233.017V225.136H409.058V233.017H410.081Z" fill="#A2A3A5"/>
<path d="M457.113 233.017H458.267L455.197 225.3H453.967L450.898 233.017H452.041L452.857 230.862H456.275L457.113 233.017ZM454.555 226.41L455.894 229.871H453.238L454.555 226.41ZM462.423 232.385C462.423 232.603 462.445 232.897 462.467 233.017H463.446C463.424 232.832 463.392 232.462 463.392 232.048V227.781H462.369V230.938C462.369 231.732 461.955 232.277 461.128 232.277C460.268 232.277 459.941 231.645 459.941 230.927V227.781H458.918V231.079C458.918 232.266 459.658 233.18 460.877 233.18C461.487 233.18 462.14 232.93 462.423 232.385ZM464.704 233.3C464.834 234.421 465.814 235.248 467.12 235.248C469.09 235.248 469.743 233.953 469.743 232.625V227.781H468.731V228.51C468.47 227.988 467.926 227.683 467.12 227.683C465.683 227.683 464.715 228.815 464.715 230.23C464.715 231.711 465.727 232.766 467.12 232.766C467.904 232.766 468.47 232.385 468.72 231.906V232.658C468.72 233.79 468.219 234.356 467.12 234.356C466.325 234.356 465.77 233.8 465.694 233.071L464.704 233.3ZM467.272 231.906C466.347 231.906 465.759 231.253 465.759 230.23C465.759 229.218 466.369 228.554 467.272 228.554C468.154 228.554 468.764 229.218 468.764 230.23C468.764 231.243 468.154 231.906 467.272 231.906Z" fill="#A2A3A5"/>
<path d="M518.121 227.052C517.947 226.214 517.251 225.136 515.509 225.136C514.083 225.136 512.962 226.225 512.962 227.433C512.962 228.587 513.746 229.305 514.845 229.545L515.944 229.784C516.717 229.947 517.098 230.426 517.098 230.981C517.098 231.656 516.576 232.211 515.509 232.211C514.344 232.211 513.735 231.417 513.659 230.557L512.636 230.883C512.777 231.983 513.659 233.18 515.52 233.18C517.164 233.18 518.187 232.092 518.187 230.894C518.187 229.817 517.468 229.011 516.184 228.728L515.03 228.478C514.377 228.336 514.04 227.912 514.04 227.357C514.04 226.638 514.66 226.072 515.531 226.072C516.608 226.072 517.076 226.834 517.164 227.389L518.121 227.052ZM520.102 229.86C520.146 229.185 520.668 228.521 521.528 228.521C522.454 228.521 522.943 229.109 522.965 229.86H520.102ZM523.118 231.221C522.922 231.809 522.497 232.277 521.648 232.277C520.766 232.277 520.092 231.623 520.07 230.687H524.01C524.021 230.622 524.032 230.491 524.032 230.361C524.032 228.728 523.128 227.618 521.517 227.618C520.2 227.618 519.014 228.739 519.014 230.383C519.014 232.157 520.244 233.18 521.648 233.18C522.867 233.18 523.705 232.451 523.999 231.526L523.118 231.221ZM526.35 235.085V232.309C526.633 232.777 527.243 233.158 528.048 233.158C529.583 233.158 530.486 231.95 530.486 230.394C530.486 228.87 529.648 227.661 528.081 227.661C527.232 227.661 526.611 228.075 526.328 228.598V227.781H525.338V235.085H526.35ZM529.441 230.394C529.441 231.471 528.843 232.244 527.896 232.244C526.96 232.244 526.339 231.471 526.339 230.394C526.339 229.349 526.96 228.565 527.896 228.565C528.854 228.565 529.441 229.349 529.441 230.394Z" fill="#A2A3A5"/>
<path d="M571.033 229.153C571.033 227.139 572.383 226.116 573.819 226.116C575.256 226.116 576.606 227.139 576.606 229.153C576.606 231.166 575.256 232.2 573.819 232.2C572.383 232.2 571.033 231.166 571.033 229.153ZM569.945 229.153C569.945 231.732 571.882 233.18 573.819 233.18C575.757 233.18 577.694 231.732 577.694 229.153C577.694 226.573 575.757 225.136 573.819 225.136C571.882 225.136 569.945 226.573 569.945 229.153ZM581.251 228.565C582.144 228.565 582.525 229.164 582.655 229.675L583.58 229.283C583.363 228.489 582.644 227.618 581.251 227.618C579.76 227.618 578.617 228.761 578.617 230.394C578.617 231.983 579.738 233.18 581.262 233.18C582.622 233.18 583.374 232.298 583.624 231.547L582.72 231.155C582.601 231.569 582.242 232.233 581.262 232.233C580.413 232.233 579.662 231.591 579.662 230.394C579.662 229.174 580.424 228.565 581.251 228.565ZM586.196 226.127H585.26V226.976C585.26 227.433 585.02 227.781 584.454 227.781H584.171V228.706H585.172V231.58C585.172 232.527 585.738 233.071 586.631 233.071C586.979 233.071 587.241 233.006 587.328 232.973V232.102C587.241 232.124 587.055 232.146 586.925 232.146C586.392 232.146 586.196 231.906 586.196 231.428V228.706H587.328V227.781H586.196V226.127Z" fill="#A2A3A5"/>
<path d="M631.678 233.017V225.3H630.611V231.221L626.758 225.3H625.332V233.017H626.399V226.725L630.568 233.017H631.678ZM635.767 232.266C634.897 232.266 634.135 231.613 634.135 230.394C634.135 229.185 634.897 228.532 635.767 228.532C636.638 228.532 637.4 229.185 637.4 230.394C637.4 231.613 636.638 232.266 635.767 232.266ZM635.767 227.618C634.2 227.618 633.09 228.804 633.09 230.394C633.09 231.994 634.2 233.18 635.767 233.18C637.335 233.18 638.445 231.994 638.445 230.394C638.445 228.804 637.335 227.618 635.767 227.618ZM644.079 227.781H642.98L641.478 231.819L639.986 227.781H638.833L640.955 233.017H641.989L644.079 227.781Z" fill="#A2A3A5"/>
<path d="M684.297 232.07V226.246H685.897C687.323 226.246 688.499 227.226 688.499 229.174C688.499 231.112 687.301 232.07 685.876 232.07H684.297ZM685.908 233.017C687.867 233.017 689.598 231.7 689.598 229.174C689.598 226.638 687.889 225.3 685.93 225.3H683.231V233.017H685.908ZM691.62 229.86C691.663 229.185 692.186 228.521 693.046 228.521C693.971 228.521 694.461 229.109 694.482 229.86H691.62ZM694.635 231.221C694.439 231.809 694.014 232.277 693.165 232.277C692.284 232.277 691.609 231.623 691.587 230.687H695.527C695.538 230.622 695.549 230.491 695.549 230.361C695.549 228.728 694.646 227.618 693.035 227.618C691.718 227.618 690.531 228.739 690.531 230.383C690.531 232.157 691.761 233.18 693.165 233.18C694.384 233.18 695.223 232.451 695.516 231.526L694.635 231.221ZM699.054 228.565C699.946 228.565 700.327 229.164 700.458 229.675L701.383 229.283C701.165 228.489 700.447 227.618 699.054 227.618C697.563 227.618 696.42 228.761 696.42 230.394C696.42 231.983 697.541 233.18 699.065 233.18C700.425 233.18 701.176 232.298 701.427 231.547L700.523 231.155C700.404 231.569 700.044 232.233 699.065 232.233C698.216 232.233 697.465 231.591 697.465 230.394C697.465 229.174 698.227 228.565 699.054 228.565Z" fill="#A2A3A5"/>
<line x1="318.901" y1="111.004" x2="318.901" y2="199.821" stroke="#422F8A" stroke-opacity="0.87" stroke-width="0.777473" stroke-dasharray="3.42 3.42"/>
<g filter="url(#filter0_d_2_186)">
<path fill-rule="evenodd" clip-rule="evenodd" d="M307.271 79.7082C306.43 81.4914 305.169 81.4914 304.328 79.7082L303.176 77.6908C302.524 76.5488 302.198 75.9777 301.74 75.5623C301.334 75.1948 300.856 74.917 300.336 74.7471C299.748 74.5551 299.09 74.5551 297.775 74.5551H278.827C275.886 74.5551 274.018 73.7821 272.942 72.8374C271.867 71.8927 271.556 71.1684 270.981 69.402C270.406 67.6356 270 65.6451 270 60.8135L270 24.7416C270 19.91 270.406 17.9195 270.981 16.1531C271.556 14.3867 271.867 13.6624 272.942 12.7177C274.018 11.773 275.886 11 278.827 11L333.752 11C336.693 11 338.562 11.773 339.637 12.7177C340.712 13.6624 341.024 14.3867 341.599 16.1531C342.174 17.9195 342.58 19.91 342.58 24.7416L342.58 60.8135C342.58 65.6451 342.174 67.6356 341.599 69.402C341.024 71.1684 340.712 71.8927 339.637 72.8374C338.562 73.7821 336.693 74.5551 333.752 74.5551L316.147 74.5551C314.77 74.5551 314.082 74.5551 313.445 74.6614C311.582 74.9726 309.897 75.9514 308.702 77.4149C308.295 77.9146 307.953 78.5125 307.271 79.7082Z" fill="white"/>
</g>
<g clip-path="url(#clip0_2_186)">
<path d="M298.209 36.2262H305.26V39.4189H308.384L308.384 36.2262H310.842V33.5159H308.384V24.512H304.48L298.209 32.9187V36.2262ZM305.26 33.5159H301.011L305.26 27.8195V33.5159ZM311.845 35.2385C312.029 37.5814 314.28 39.7864 317.519 39.7864C321.102 39.7864 323.238 37.3747 323.238 34.5954C323.238 31.4027 321.125 29.6111 318.139 29.6111C317.151 29.6111 316.095 29.9327 315.451 30.5299L316.186 27.2453L322.434 27.2453V24.512L314.027 24.512L312.259 32.1607C312.58 32.2526 314.854 33.0335 315.153 33.1484C315.635 32.5971 316.439 32.1377 317.45 32.1377C318.828 32.1377 320.091 32.9416 320.091 34.6414C320.091 36.1343 318.943 37.0761 317.519 37.0761C315.934 37.0761 314.877 35.9506 314.808 34.5724L311.845 35.2385Z" fill="#11263C"/>
<path d="M295.127 56.0858V47.9827H293.63L290.75 54.5771L287.893 47.9827H286.373V56.0858H287.481V49.777L290.224 56.0858H291.253L294.019 49.777L294.019 56.0858H295.127ZM296.675 54.6114C296.675 55.48 297.395 56.2572 298.515 56.2572C299.498 56.2572 300.046 55.7315 300.286 55.3429C300.286 55.7429 300.321 55.9486 300.343 56.0858H301.395C301.372 55.9486 301.326 55.6629 301.326 55.1829V52.4285C301.326 51.3542 300.686 50.417 299.041 50.417C297.852 50.417 296.903 51.1485 296.789 52.1999L297.818 52.44C297.886 51.7999 298.309 51.3314 299.063 51.3314C299.898 51.3314 300.252 51.7771 300.252 52.3142C300.252 52.5085 300.161 52.68 299.829 52.7257L298.343 52.9428C297.395 53.08 296.675 53.6286 296.675 54.6114ZM298.663 55.3543C298.115 55.3543 297.772 54.9657 297.772 54.5543C297.772 54.0629 298.115 53.8 298.572 53.7314L300.252 53.48V53.7314C300.252 54.9314 299.543 55.3543 298.663 55.3543ZM304.26 58.383L307.837 50.5885H306.683L305.037 54.3829L303.323 50.5885H302.088L304.454 55.48L303.083 58.383H304.26ZM312.425 51.3428C312.414 51.2285 312.402 51.1142 312.402 51.0113C312.402 50.1656 312.859 49.4913 313.831 49.4913C314.768 49.4913 315.225 50.1199 315.225 50.7942C315.225 51.3656 314.905 51.8914 314.208 52.3371L312.974 53.1371C311.716 53.9486 311.236 54.8743 311.214 56.0858L316.402 56.0858V55.0457H312.596C312.699 54.5886 313.076 54.28 313.499 54.0057L314.962 53.0685C315.808 52.5314 316.356 51.7542 316.356 50.7828C316.356 49.5485 315.442 48.5084 313.854 48.5084C312.231 48.5084 311.294 49.6399 311.294 50.9085C311.294 50.9999 311.294 51.1028 311.305 51.2056L312.425 51.3428ZM318.474 51.3428C318.463 51.2285 318.451 51.1142 318.451 51.0113C318.451 50.1656 318.909 49.4913 319.88 49.4913C320.817 49.4913 321.274 50.1199 321.274 50.7942C321.274 51.3656 320.954 51.8914 320.257 52.3371L319.023 53.1371C317.766 53.9486 317.286 54.8743 317.263 56.0858H322.451V55.0457H318.646C318.749 54.5886 319.126 54.28 319.549 54.0057L321.011 53.0685C321.857 52.5314 322.406 51.7542 322.406 50.7828C322.406 49.5485 321.491 48.5084 319.903 48.5084C318.28 48.5084 317.343 49.6399 317.343 50.9085C317.343 50.9999 317.343 51.1028 317.354 51.2056L318.474 51.3428ZM324.901 52.9085C324.901 52.0742 325.335 51.3999 326.181 51.3999C327.141 51.3999 327.461 52.0171 327.461 52.7828V56.0858H328.535V52.6C328.535 51.3771 327.884 50.4285 326.569 50.4285C325.929 50.4285 325.278 50.6913 324.878 51.3771V50.5885H323.826L323.826 56.0858H324.901V52.9085ZM330.884 53.32C330.884 52.1885 331.524 51.3885 332.507 51.3885C333.49 51.3885 334.084 52.1657 334.084 53.2971C334.084 54.4286 333.478 55.2857 332.495 55.2857C331.467 55.2857 330.884 54.4514 330.884 53.32ZM334.095 55.3429C334.095 55.6743 334.13 55.96 334.153 56.0858H335.193C335.181 55.9943 335.135 55.5943 335.135 55.0686V47.8113H334.073V51.3656C333.89 50.9199 333.364 50.4399 332.393 50.4399C330.838 50.4399 329.787 51.7657 329.787 53.32C329.787 54.9543 330.781 56.2343 332.393 56.2343C333.25 56.2343 333.833 55.7772 334.095 55.2515V55.3429Z" fill="#3C3C43" fill-opacity="0.6"/>
</g>
<g filter="url(#filter1_dd_2_186)">
<rect x="306" y="87" width="13.1803" height="18.45" rx="6.59016" fill="#2D2B6D"/>
<rect x="306" y="87" width="13.1803" height="18.45" rx="6.59016" fill="white" fill-opacity="0.6"/>
<rect x="307.555" y="88.5549" width="10.0704" height="15.3401" rx="5.03522" stroke="white" stroke-width="3.10989"/>
</g>
<defs>
<filter id="filter0_d_2_186" x="256.122" y="0.252528" width="100.335" height="97.8009" filterUnits="userSpaceOnUse" color-interpolation-filters="sRGB">
<feFlood flood-opacity="0" result="BackgroundImageFix"/>
<feColorMatrix in="SourceAlpha" type="matrix" values="0 0 0 0 0 0 0 0 0 0 0 0 0 0 0 0 0 0 127 0" result="hardAlpha"/>
<feOffset dy="3.13018"/>
<feGaussianBlur stdDeviation="6.93883"/>
<feColorMatrix type="matrix" values="0 0 0 0 0.196487 0 0 0 0 0.196487 0 0 0 0 0.279476 0 0 0 0.06 0"/>
<feBlend mode="multiply" in2="BackgroundImageFix" result="effect1_dropShadow_2_186"/>
<feBlend mode="normal" in="SourceGraphic" in2="effect1_dropShadow_2_186" result="shape"/>
</filter>
<filter id="filter1_dd_2_186" x="301.853" y="84.9267" width="21.4734" height="26.743" filterUnits="userSpaceOnUse" color-interpolation-filters="sRGB">
<feFlood flood-opacity="0" result="BackgroundImageFix"/>
<feColorMatrix in="SourceAlpha" type="matrix" values="0 0 0 0 0 0 0 0 0 0 0 0 0 0 0 0 0 0 127 0" result="hardAlpha"/>
<feOffset dy="2.07326"/>
<feGaussianBlur stdDeviation="2.07326"/>
<feColorMatrix type="matrix" values="0 0 0 0 0.196487 0 0 0 0 0.196487 0 0 0 0 0.279476 0 0 0 0.06 0"/>
<feBlend mode="multiply" in2="BackgroundImageFix" result="effect1_dropShadow_2_186"/>
<feColorMatrix in="SourceAlpha" type="matrix" values="0 0 0 0 0 0 0 0 0 0 0 0 0 0 0 0 0 0 127 0" result="hardAlpha"/>
<feOffset dy="2.07326"/>
<feGaussianBlur stdDeviation="1.03663"/>
<feColorMatrix type="matrix" values="0 0 0 0 0.196487 0 0 0 0 0.196487 0 0 0 0 0.279476 0 0 0 0.06 0"/>
<feBlend mode="multiply" in2="effect1_dropShadow_2_186" result="effect2_dropShadow_2_186"/>
<feBlend mode="normal" in="SourceGraphic" in2="effect2_dropShadow_2_186" result="shape"/>
</filter>
<linearGradient id="paint0_linear_2_186" x1="358.535" y1="14.0897" x2="360.071" y2="285.275" gradientUnits="userSpaceOnUse">
<stop stop-color="#7459D9" stop-opacity="0.13"/>
<stop offset="0.998978" stop-color="white" stop-opacity="0"/>
</linearGradient>
<clipPath id="clip0_2_186">
<rect width="50.6022" height="40.5174" fill="white" transform="translate(285.395 19.9381)"/>
</clipPath>
</defs>
</svg>
